<svg id="visual" viewBox="0 0 900 600" width="900" height="600" xmlns="http://www.w3.org/2000/svg" xmlns:xlink="http://www.w3.org/1999/xlink" version="1.1"><rect x="0" y="0" width="900" height="600" fill="#001220"></rect><path d="M0 354L21.5 359.5C43 365 86 376 128.8 376.2C171.7 376.3 214.3 365.7 257.2 366C300 366.3 343 377.7 385.8 391.7C428.7 405.7 471.3 422.3 514.2 431.2C557 440 600 441 642.8 431.5C685.7 422 728.3 402 771.2 398C814 394 857 406 878.5 412L900 418L900 601L878.5 601C857 601 814 601 771.2 601C728.3 601 685.7 601 642.8 601C600 601 557 601 514.2 601C471.3 601 428.7 601 385.8 601C343 601 300 601 257.2 601C214.3 601 171.7 601 128.8 601C86 601 43 601 21.5 601L0 601Z" fill="#fa7268"></path><path d="M0 466L21.5 457.3C43 448.7 86 431.3 128.8 429.5C171.7 427.7 214.3 441.3 257.2 438.2C300 435 343 415 385.8 418.2C428.7 421.3 471.3 447.7 514.2 458.3C557 469 600 464 642.8 451C685.7 438 728.3 417 771.2 408.7C814 400.3 857 404.7 878.5 406.8L900 409L900 601L878.5 601C857 601 814 601 771.2 601C728.3 601 685.7 601 642.8 601C600 601 557 601 514.2 601C471.3 601 428.7 601 385.8 601C343 601 300 601 257.2 601C214.3 601 171.7 601 128.8 601C86 601 43 601 21.5 601L0 601Z" fill="#ef5f67"></path><path d="M0 452L21.5 450.3C43 448.7 86 445.3 128.8 448.8C171.7 452.3 214.3 462.7 257.2 463.5C300 464.3 343 455.7 385.8 458.5C428.7 461.3 471.3 475.7 514.2 479.3C557 483 600 476 642.8 475.7C685.7 475.3 728.3 481.7 771.2 485.5C814 489.3 857 490.7 878.5 491.3L900 492L900 601L878.5 601C857 601 814 601 771.2 601C728.3 601 685.7 601 642.8 601C600 601 557 601 514.2 601C471.3 601 428.7 601 385.8 601C343 601 300 601 257.2 601C214.3 601 171.7 601 128.8 601C86 601 43 601 21.5 601L0 601Z" fill="#e34c67"></path><path d="M0 498L21.5 495.8C43 493.7 86 489.3 128.8 492.7C171.7 496 214.3 507 257.2 510.7C300 514.3 343 510.7 385.8 511.3C428.7 512 471.3 517 514.2 521.2C557 525.3 600 528.7 642.8 532.2C685.7 535.7 728.3 539.3 771.2 537.3C814 535.3 857 527.7 878.5 523.8L900 520L900 601L878.5 601C857 601 814 601 771.2 601C728.3 601 685.7 601 642.8 601C600 601 557 601 514.2 601C471.3 601 428.7 601 385.8 601C343 601 300 601 257.2 601C214.3 601 171.7 601 128.8 601C86 601 43 601 21.5 601L0 601Z" fill="#d53867"></path><path d="M0 526L21.5 527.3C43 528.7 86 531.3 128.8 534.2C171.7 537 214.3 540 257.2 542C300 544 343 545 385.8 542.3C428.7 539.7 471.3 533.3 514.2 531C557 528.7 600 530.3 642.8 537.7C685.7 545 728.3 558 771.2 562.3C814 566.7 857 562.3 878.5 560.2L900 558L900 601L878.5 601C857 601 814 601 771.2 601C728.3 601 685.7 601 642.8 601C600 601 557 601 514.2 601C471.3 601 428.7 601 385.8 601C343 601 300 601 257.2 601C214.3 601 171.7 601 128.8 601C86 601 43 601 21.5 601L0 601Z" fill="#c62368"></path></svg>