<svg id="visual" viewBox="0 0 960 540" width="960" height="540" xmlns="http://www.w3.org/2000/svg" xmlns:xlink="http://www.w3.org/1999/xlink" version="1.1"><rect x="0" y="0" width="960" height="540" fill="#001220"></rect><path d="M0 179L22.8 172.5C45.7 166 91.3 153 137 153.8C182.7 154.7 228.3 169.3 274 172.2C319.7 175 365.3 166 411.2 165.7C457 165.3 503 173.7 548.8 183C594.7 192.3 640.3 202.7 686 198.5C731.7 194.3 777.3 175.7 823 176.3C868.7 177 914.3 197 937.2 207L960 217L960 0L937.2 0C914.3 0 868.7 0 823 0C777.3 0 731.7 0 686 0C640.3 0 594.7 0 548.8 0C503 0 457 0 411.2 0C365.3 0 319.7 0 274 0C228.3 0 182.7 0 137 0C91.3 0 45.7 0 22.8 0L0 0Z" fill="#fa7268"></path><path d="M0 116L22.8 122.8C45.7 129.7 91.3 143.3 137 154C182.7 164.7 228.3 172.3 274 172.5C319.7 172.7 365.3 165.3 411.2 153C457 140.7 503 123.3 548.8 115.8C594.7 108.3 640.3 110.7 686 114.5C731.7 118.3 777.3 123.7 823 124.2C868.7 124.7 914.3 120.3 937.2 118.2L960 116L960 0L937.2 0C914.3 0 868.7 0 823 0C777.3 0 731.7 0 686 0C640.3 0 594.7 0 548.8 0C503 0 457 0 411.2 0C365.3 0 319.7 0 274 0C228.3 0 182.7 0 137 0C91.3 0 45.7 0 22.8 0L0 0Z" fill="#ef5f67"></path><path d="M0 117L22.8 121.7C45.7 126.3 91.3 135.7 137 137.8C182.7 140 228.3 135 274 124.3C319.7 113.7 365.3 97.3 411.2 91C457 84.7 503 88.3 548.8 93C594.7 97.7 640.3 103.3 686 104.5C731.7 105.7 777.3 102.3 823 99.8C868.7 97.3 914.3 95.7 937.2 94.8L960 94L960 0L937.2 0C914.3 0 868.7 0 823 0C777.3 0 731.7 0 686 0C640.3 0 594.7 0 548.8 0C503 0 457 0 411.2 0C365.3 0 319.7 0 274 0C228.3 0 182.7 0 137 0C91.3 0 45.7 0 22.8 0L0 0Z" fill="#e34c67"></path><path d="M0 72L22.8 69.8C45.7 67.7 91.3 63.3 137 64.8C182.7 66.3 228.3 73.7 274 73C319.7 72.3 365.3 63.7 411.2 66.7C457 69.7 503 84.3 548.8 92.7C594.7 101 640.3 103 686 98.7C731.7 94.3 777.3 83.7 823 79C868.7 74.3 914.3 75.7 937.2 76.3L960 77L960 0L937.2 0C914.3 0 868.7 0 823 0C777.3 0 731.7 0 686 0C640.3 0 594.7 0 548.8 0C503 0 457 0 411.2 0C365.3 0 319.7 0 274 0C228.3 0 182.7 0 137 0C91.3 0 45.7 0 22.8 0L0 0Z" fill="#d53867"></path><path d="M0 36L22.8 39.5C45.7 43 91.3 50 137 54.7C182.7 59.3 228.3 61.7 274 60.3C319.7 59 365.3 54 411.2 52.3C457 50.7 503 52.3 548.8 51.2C594.7 50 640.3 46 686 42.8C731.7 39.7 777.3 37.3 823 36.2C868.7 35 914.3 35 937.2 35L960 35L960 0L937.2 0C914.3 0 868.7 0 823 0C777.3 0 731.7 0 686 0C640.3 0 594.7 0 548.8 0C503 0 457 0 411.2 0C365.3 0 319.7 0 274 0C228.3 0 182.7 0 137 0C91.3 0 45.7 0 22.8 0L0 0Z" fill="#c62368"></path></svg>